# xmcd CD database file generated by OrangeCD 6.3
#
# Track frame offsets:
#	150
#	24242
#	37662
#	58832
#	77405
#	89487
#	112047
#	132410
#	149215
#	180182
#
# Disc length: 2779 seconds
#
# Revision: 3
# Processed by: cddbd v1.5.2PL0 Copyright (c) Steve Scherf et al.
# Submitted via: OrangeCD 6.3
#
DISCID=7f0ad90a
DTITLE=The O'Jays - When The World's At Peace
DYEAR=2002
DGENRE=R&B
TTITLE0=When The World's At Peace
TTITLE1=Love Train
TTITLE2=Now That We Found Love
TTITLE3=Put Your Hands Together
TTITLE4=Deeper (In Love With You)
TTITLE5=Unity
TTITLE6=Something/Little Green Apples
TTITLE7=Sunshine
TTITLE8=I Love Music
TTITLE9=Stairway To Heaven
EXTD=
EXTT0=
EXTT1=
EXTT2=
EXTT3=
EXTT4=
EXTT5=
EXTT6=
EXTT7=
EXTT8=
EXTT9=
PLAYORDER=
